<svg width="100" height="101" viewBox="0 0 100 101" fill="none" xmlns="http://www.w3.org/2000/svg">
<path d="M2.96729 4.13809C7.36726 -1.46193 13.1339 1.13809 15.4673 3.13809L49.9673 37.1381L79.9673 7.13807C79.9673 7.13807 89.4673 -3.36193 95.9673 3.13807C101.167 8.33807 98.8006 14.3047 96.9673 16.6381C95.134 18.9714 62.9673 50.6381 62.9673 50.6381L97.9673 85.6381C99.4673 87.6381 101.267 92.8381 96.4673 97.6381C91.6673 102.438 86.4673 100.305 84.4673 98.6381L49.9673 64.1381L16.4673 97.6381C14.3006 99.8047 8.66728 102.838 3.46728 97.6381C-1.73272 92.4381 1.30062 86.4714 3.46728 84.1381L36.4673 51.1381L1.96728 16.6381C0.467285 14.8047 -1.43272 9.73815 2.96729 4.13809Z" fill="#EE5E5E"/>
</svg>
